<svg id="Capa_1" data-name="Capa 1" xmlns="http://www.w3.org/2000/svg" viewBox="0 0 1000 800"><defs><style>.cls-1{fill:#c02717;}</style></defs><title>tyughjdtrygyuerst</title><path class="cls-1" d="M778.84,130.35c-2.64-.83-65.67-20.53-140.35-20.53-44.57,0-84,7.06-117.11,21C492,143.16,452.17,149.42,403,149.42c-68.88,0-136.8-12.47-161-17.41V108.28c0-5.68-5.8-10.28-13-10.28s-13,4.6-13,10.28v30.85c0,.15.09.27.1.41s-.1.23-.1.35V704.72c0,5.68,5.8,10.28,13,10.28s13-4.6,13-10.28v-243c29.5,5.8,94,16.73,161,16.73,53.5,0,97.42-7.07,130.58-21,29.37-12.35,64.67-18.61,105-18.61,69.52,0,130.12,18.88,130.72,19.07a15.82,15.82,0,0,0,12.09-1.05c3.56-1.89,5.7-5.08,5.7-8.5V139.89C787,135.69,783.77,131.91,778.84,130.35Z"/></svg>