<?xml version="1.0" encoding="utf-8"?>
<!-- Generator: Adobe Illustrator 22.0.0, SVG Export Plug-In . SVG Version: 6.00 Build 0)  -->
<svg version="1.1" xmlns="http://www.w3.org/2000/svg" xmlns:xlink="http://www.w3.org/1999/xlink" x="0px" y="0px"
	 viewBox="0 0 1000 800" style="enable-background:new 0 0 1000 800;" xml:space="preserve">
<style type="text/css">
	.st0{fill:#8200FF;}
</style>
<g id="Layer_2">
	<path class="st0" d="M768,175H225c-6.6,0-12-5.4-12-12v-56c0-6.6,5.4-12,12-12h543c6.6,0,12,5.4,12,12v56
		C780,169.6,774.6,175,768,175z"/>
	<path class="st0" d="M277,715h-52c-6.6,0-12-5.4-12-12V107c0-6.6,5.4-12,12-12h52c6.6,0,12,5.4,12,12v596
		C289,709.6,283.6,715,277,715z"/>
	<path class="st0" d="M768,715H225c-6.6,0-12-5.4-12-12v-56c0-6.6,5.4-12,12-12h543c6.6,0,12,5.4,12,12v56
		C780,709.6,774.6,715,768,715z"/>
	<path class="st0" d="M768,715h-52c-6.6,0-12-5.4-12-12V107c0-6.6,5.4-12,12-12h52c6.6,0,12,5.4,12,12v596
		C780,709.6,774.6,715,768,715z"/>
	<g>
		<path class="st0" d="M619.3,436H373.7c-6.6,0-12-5.4-12-12v-38c0-6.6,5.4-12,12-12h245.5c6.6,0,12,5.4,12,12v38
			C631.3,430.6,625.9,436,619.3,436z"/>
		<g>
			<path class="st0" d="M619.3,315.5H373.7c-6.6,0-12-5.4-12-12v-38c0-6.6,5.4-12,12-12h245.5c6.6,0,12,5.4,12,12v38
				C631.3,310.1,625.9,315.5,619.3,315.5z"/>
			<path class="st0" d="M619.3,556.5H373.7c-6.6,0-12-5.4-12-12v-38c0-6.6,5.4-12,12-12h245.5c6.6,0,12,5.4,12,12v38
				C631.3,551.1,625.9,556.5,619.3,556.5z"/>
		</g>
	</g>
</g>
<g id="Layer_3">
</g>
<g id="Layer_4">
	<g>
		<polygon class="st0" points="649.5,499.4 570.7,515.3 565.1,435.1 638.3,338.9 717.2,323 722.8,403.2 		"/>
		<path class="st0" d="M659.4,431.9l-33.2-25.3c-13.9-10.6-16.6-30.4-6-44.3L829,88.1c10.6-13.9,30.4-16.6,44.3-6l33.2,25.3
			c13.9,10.6,16.6,30.4,6,44.3L703.6,425.9C693.1,439.8,673.2,442.5,659.4,431.9z"/>
	</g>
</g>
</svg>
