<?xml version="1.0" encoding="utf-8"?>
<!-- Generator: Adobe Illustrator 22.0.0, SVG Export Plug-In . SVG Version: 6.00 Build 0)  -->
<svg version="1.1"
	 id="svg2" inkscape:version="0.47 r22583" sodipodi:docname="MSX-Logo.svg" xmlns:cc="http://creativecommons.org/ns#" xmlns:dc="http://purl.org/dc/elements/1.1/" xmlns:inkscape="http://www.inkscape.org/namespaces/inkscape" xmlns:rdf="http://www.w3.org/1999/02/22-rdf-syntax-ns#" xmlns:sodipodi="http://sodipodi.sourceforge.net/DTD/sodipodi-0.dtd" xmlns:svg="http://www.w3.org/2000/svg"
	 xmlns="http://www.w3.org/2000/svg" xmlns:xlink="http://www.w3.org/1999/xlink" x="0px" y="0px" viewBox="0 0 512 212"
	 style="enable-background:new 0 0 512 212;" xml:space="preserve">
<style type="text/css">
	.st0{fill:#4666F1;}
	.st1{fill:#FFFFFF;}
</style>
<defs>
	
	
		<inkscape:perspective  id="perspective10" inkscape:persp3d-origin="372.04724 : 350.78739 : 1" inkscape:vp_x="0 : 526.18109 : 1" inkscape:vp_y="0 : 1000 : 0" inkscape:vp_z="744.09448 : 526.18109 : 1" sodipodi:type="inkscape:persp3d">
		</inkscape:perspective>
	
		<inkscape:perspective  id="perspective2824" inkscape:persp3d-origin="0.5 : 0.33333333 : 1" inkscape:vp_x="0 : 0.5 : 1" inkscape:vp_y="0 : 1000 : 0" inkscape:vp_z="1 : 0.5 : 1" sodipodi:type="inkscape:persp3d">
		</inkscape:perspective>
</defs>
<sodipodi:namedview  bordercolor="#666666" borderopacity="1.0" id="base" inkscape:current-layer="layer1" inkscape:cx="125.21669" inkscape:cy="142.45913" inkscape:document-units="px" inkscape:pageopacity="0.0" inkscape:pageshadow="2" inkscape:window-height="968" inkscape:window-maximized="1" inkscape:window-width="1280" inkscape:window-x="-4" inkscape:window-y="-4" inkscape:zoom="2" pagecolor="#ffffff" showgrid="false">
	</sodipodi:namedview>
<g id="layer1" transform="translate(0,-840.36218)" inkscape:groupmode="layer" inkscape:label="Ebene 1">
	<path id="path2830" sodipodi:nodetypes="cccccccccccccccccccccccccccccccccccc" class="st0" d="M33.6,1022.3l38.9-153.1h36.1
		l18.7,66.8l19.4-66.8h33.9L212.5,982l77.6-0.1c8.1-0.1,8.6-16.9-0.6-16.9l-45.2-0.6c-19.4,0.2-39.9-20.8-38.9-48.8
		c0.2-25.7,22.6-45.9,51.2-45.9l115.3-0.1l29.3,40l28.6-40.3l47.7,0.4l-52.3,73.5l56.6,79.7l-47.5-0.1L401.5,977l-31.3,45.8h-48.4
		L377,944l-24-35H252.6c-10.9,0.1-10.5,17.3,0.1,17l42.2,0.6c17.9,0.1,43,18.7,42.4,47.6c0.3,33.7-30.1,49-44.7,48.2l-110.6,0.1
		l-18.4-68.9l-18.4,68.7h-34.9l-19.2-68.4l-16.9,68.5L33.6,1022.3z"/>
</g>
<path class="st1" d="M-668-411"/>
</svg>
